<?xml version="1.0" encoding="UTF-8"?>
<svg width="62px" height="26px" viewBox="0 0 62 26" version="1.1" xmlns="http://www.w3.org/2000/svg" xmlns:xlink="http://www.w3.org/1999/xlink">
    <title>Group</title>
    <g id="Page-1" stroke="none" stroke-width="1" fill="none" fill-rule="evenodd">
        <g id="Group">
            <g id="logo-sidebar-light">
                <polygon id="Path" fill="#8AC4EB" points="19.7838 0 13.4043 6.64709 29.1638 6.64709 35.5433 0"></polygon>
                <path d="M6.15911,2.31187 C6.27552,2.1958 6.4332,2.13062 6.59759,2.13062 L27.3248,2.13062 C27.5761,2.13062 27.8026,2.28211 27.8987,2.51437 C27.9947,2.74664 27.9412,3.01388 27.7632,3.19134 L21.7867,9.1508 C21.6703,9.26687 21.5126,9.33205 21.3482,9.33205 L0.621008,9.33205 C0.369679,9.33205 0.143131,9.18056 0.0471181,8.94829 C-0.0488948,8.71603 0.00456112,8.44879 0.182532,8.27133 L6.15911,2.31187 Z M6.85429,3.37259 L2.12325,8.09007 L21.0915,8.09007 L25.8225,3.37259 L6.85429,3.37259 Z" id="Shape" fill="#28234A"></path>
            </g>
            <path d="M5.4921875,25.296875 C6.9609375,25.296875 8.09765625,24.9492188 8.90234375,24.2539062 C9.70703125,23.5585938 10.109375,22.6848958 10.109375,21.6328125 C10.109375,20.6067708 9.765625,19.8229167 9.078125,19.28125 C8.63541667,18.9322917 7.97916667,18.6536458 7.109375,18.4453125 L7.109375,18.4453125 L5.125,17.96875 C4.359375,17.7864583 3.859375,17.6276042 3.625,17.4921875 C3.26041667,17.2890625 3.078125,16.9817708 3.078125,16.5703125 C3.078125,16.1223958 3.26302083,15.7734375 3.6328125,15.5234375 C4.00260417,15.2734375 4.49739583,15.1484375 5.1171875,15.1484375 C5.67447917,15.1484375 6.140625,15.2447917 6.515625,15.4375 C7.078125,15.7291667 7.38020833,16.2213542 7.421875,16.9140625 L7.421875,16.9140625 L9.734375,16.9140625 C9.69270833,15.6901042 9.24348958,14.7565104 8.38671875,14.1132812 C7.52994792,13.4700521 6.49479167,13.1484375 5.28125,13.1484375 C3.828125,13.1484375 2.7265625,13.4895833 1.9765625,14.171875 C1.2265625,14.8541667 0.8515625,15.7109375 0.8515625,16.7421875 C0.8515625,17.8723958 1.23958333,18.703125 2.015625,19.234375 C2.47395833,19.5520833 3.30208333,19.8463542 4.5,20.1171875 L4.5,20.1171875 L5.71875,20.390625 C6.43229167,20.546875 6.95572917,20.7265625 7.2890625,20.9296875 C7.62239583,21.1380208 7.7890625,21.4322917 7.7890625,21.8125 C7.7890625,22.4635417 7.453125,22.9088542 6.78125,23.1484375 C6.42708333,23.2734375 5.96614583,23.3359375 5.3984375,23.3359375 C4.45052083,23.3359375 3.78125,23.0989583 3.390625,22.625 C3.17708333,22.3645833 3.03385417,21.9713542 2.9609375,21.4453125 L2.9609375,21.4453125 L0.6640625,21.4453125 C0.6640625,22.6432292 1.09375,23.5846354 1.953125,24.2695312 C2.8125,24.9544271 3.9921875,25.296875 5.4921875,25.296875 Z M14.474067,25 L15.270942,22.6328125 L19.5131295,22.6328125 L20.255317,25 L22.864692,25 L18.786567,13.484375 L16.067817,13.484375 L11.958442,25 L14.474067,25 Z M18.8412545,20.6484375 L15.9193795,20.6484375 L17.4037545,16.1171875 L18.8412545,20.6484375 Z M27.4090715,25 L27.4090715,16.8203125 L32.1121965,25 L34.5184465,25 L34.5184465,13.484375 L32.276259,13.484375 L32.276259,21.5234375 L27.6903215,13.484375 L25.166884,13.484375 L25.166884,25 L27.4090715,25 Z M39.344076,25 L40.140951,22.6328125 L44.3831385,22.6328125 L45.125326,25 L47.734701,25 L43.656576,13.484375 L40.937826,13.484375 L36.828451,25 L39.344076,25 Z M43.7112635,20.6484375 L40.7893885,20.6484375 L42.2737635,16.1171875 L43.7112635,20.6484375 Z M52.2790805,25 L52.2790805,17.2109375 C52.2790805,16.9869792 52.2764763,16.6731771 52.271268,16.2695312 C52.2660597,15.8658854 52.2634555,15.5546875 52.2634555,15.3359375 L52.2634555,15.3359375 L54.427518,25 L56.7634555,25 L58.943143,15.3359375 C58.943143,15.5546875 58.9405388,15.8658854 58.9353305,16.2695312 C58.9301222,16.6731771 58.927518,16.9869792 58.927518,17.2109375 L58.927518,25 L61.1697055,25 L61.1697055,13.484375 L57.708768,13.484375 L55.630643,22.5390625 L53.536893,13.484375 L50.036893,13.484375 L50.036893,25 L52.2790805,25 Z" id="SANAM" fill="#28234A" fill-rule="nonzero"></path>
        </g>
    </g>
</svg>